<svg width="27" height="22" viewBox="0 0 27 22" fill="none" xmlns="http://www.w3.org/2000/svg">
<path d="M17 3.2353C17 3.06369 17.0527 2.8991 17.1464 2.77776C17.2402 2.65641 17.3674 2.58824 17.5 2.58824H25.5C25.6326 2.58824 25.7598 2.65641 25.8536 2.77776C25.9473 2.8991 26 3.06369 26 3.2353C26 3.40691 25.9473 3.57149 25.8536 3.69284C25.7598 3.81418 25.6326 3.88236 25.5 3.88236H17.5C17.3674 3.88236 17.2402 3.81418 17.1464 3.69284C17.0527 3.57149 17 3.40691 17 3.2353ZM27 14.8824C27 15.054 26.9473 15.2185 26.8536 15.3399C26.7598 15.4612 26.6326 15.5294 26.5 15.5294H17.025C17.1216 16.6187 17.4533 17.6508 17.982 18.5075C18.5107 19.3643 19.2151 20.0111 20.0146 20.374C20.8141 20.7369 21.6763 20.8011 22.5027 20.5595C23.3291 20.3178 24.0863 19.7799 24.6875 19.0074C24.7838 18.9139 24.9029 18.8685 25.0229 18.8796C25.143 18.8906 25.2559 18.9573 25.3411 19.0675C25.4262 19.1776 25.4777 19.3238 25.4862 19.4791C25.4948 19.6345 25.4597 19.7886 25.3875 19.9132C24.4873 21.0772 23.3032 21.8012 22.0367 21.9619C20.7703 22.1226 19.5 21.7101 18.4423 20.7946C17.3846 19.8791 16.6049 18.5173 16.2361 16.9412C15.8673 15.3651 15.9322 13.6723 16.4197 12.1512C16.9072 10.6301 17.7873 9.37485 18.9098 8.59932C20.0324 7.82379 21.328 7.57598 22.5759 7.89811C23.8238 8.22024 24.9468 9.09238 25.7535 10.3659C26.5602 11.6395 27.0007 13.2356 27 14.8824ZM25.975 14.2353C25.858 12.8049 25.3361 11.4812 24.5099 10.5191C23.6836 9.55708 22.6115 9.02477 21.5 9.02477C20.3885 9.02477 19.3164 9.55708 18.4901 10.5191C17.6639 11.4812 17.142 12.8049 17.025 14.2353H25.975ZM13.5 15.8529C13.5 17.4832 12.9996 19.0468 12.1088 20.1996C11.218 21.3524 10.0098 22 8.75 22H0.5C0.367392 22 0.240215 21.9318 0.146447 21.8105C0.0526785 21.6891 0 21.5246 0 21.3529V0.647062C0 0.475451 0.0526785 0.310869 0.146447 0.189522C0.240215 0.0681753 0.367392 3.0928e-06 0.5 3.0928e-06H7.25C8.13885 -0.00121643 9.00563 0.358242 9.72837 1.0278C10.4511 1.69736 10.9935 2.64333 11.2791 3.7326C11.5647 4.82186 11.5793 5.99961 11.3207 7.10013C11.0621 8.20065 10.5434 9.16855 9.8375 9.86765C10.88 10.1849 11.809 10.9488 12.4738 12.0353C13.1386 13.1217 13.5003 14.4671 13.5 15.8529ZM1 9.70588H7.25C8.11195 9.70588 8.9386 9.26276 9.5481 8.47401C10.1576 7.68525 10.5 6.61547 10.5 5.5C10.5 4.38453 10.1576 3.31475 9.5481 2.526C8.9386 1.73724 8.11195 1.29412 7.25 1.29412H1V9.70588ZM12.5 15.8529C12.4967 14.5672 12.1006 13.3353 11.398 12.4261C10.6955 11.5169 9.74355 11.0043 8.75 11H1V20.7059H8.75C9.74355 20.7016 10.6955 20.189 11.398 19.2798C12.1006 18.3706 12.4967 17.1387 12.5 15.8529Z" fill="white"/>
</svg>
