<svg width="26" height="26" viewBox="0 0 26 26" fill="none" xmlns="http://www.w3.org/2000/svg">
<g clip-path="url(#clip0_418_143)">
<path d="M9.0075 24.5348C9.0075 24.5348 12.0636 11.8085 12.3658 11.0102C9.44654 11.2896 10.3816 18.1317 13.6886 18.8786C16.4882 19.5343 19.59 16.29 19.5443 12.6922C19.4987 9.09442 17.3834 7.29837 14.7093 6.55144C12.0351 5.80451 7.78162 6.7282 6.65268 10.4685C6.24816 11.6044 6.19499 12.8357 6.50008 14.0021C6.80517 15.1686 7.45439 16.2161 8.3632 17.0085" stroke="white" stroke-linecap="round" stroke-linejoin="round"/>
<path d="M13.001 0.740234C10.5764 0.740234 8.2063 1.4592 6.19036 2.80621C4.17441 4.15322 2.60317 6.06778 1.67534 8.30778C0.747499 10.5478 0.504734 13.0126 0.977742 15.3906C1.45075 17.7685 2.61828 19.9528 4.3327 21.6673C6.04712 23.3817 8.23143 24.5492 10.6094 25.0222C12.9874 25.4952 15.4522 25.2525 17.6922 24.3246C19.9322 23.3968 21.8468 21.8256 23.1938 19.8096C24.5408 17.7937 25.2597 15.4236 25.2597 12.999C25.2582 9.74824 23.9662 6.63105 21.6676 4.33241C19.3689 2.03378 16.2517 0.741745 13.001 0.740234V0.740234Z" stroke="white" stroke-linecap="round" stroke-linejoin="round"/>
</g>
<defs>
<clipPath id="clip0_418_143">
<rect width="26" height="26" fill="white"/>
</clipPath>
</defs>
</svg>
