<svg width="26" height="26" viewBox="0 0 26 26" fill="none" xmlns="http://www.w3.org/2000/svg">
<g clip-path="url(#clip0_401_77)">
<path d="M9.0075 24.5348C9.0075 24.5348 12.0636 11.8085 12.3658 11.0102C9.44654 11.2896 10.3816 18.1317 13.6886 18.8786C16.4882 19.5343 19.59 16.29 19.5443 12.6922C19.4987 9.09442 17.3834 7.29837 14.7093 6.55144C12.0351 5.80451 7.78162 6.7282 6.65268 10.4685C6.24816 11.6044 6.19499 12.8357 6.50008 14.0021C6.80517 15.1686 7.45439 16.2161 8.3632 17.0085" stroke="black" stroke-linecap="round" stroke-linejoin="round"/>
<path d="M13.001 0.741211C10.5764 0.741211 8.2063 1.46018 6.19036 2.80719C4.17441 4.1542 2.60317 6.06876 1.67534 8.30875C0.747499 10.5488 0.504734 13.0136 0.977742 15.3916C1.45075 17.7695 2.61828 19.9538 4.3327 21.6682C6.04712 23.3827 8.23143 24.5502 10.6094 25.0232C12.9874 25.4962 15.4522 25.2535 17.6922 24.3256C19.9322 23.3978 21.8468 21.8265 23.1938 19.8106C24.5408 17.7946 25.2597 15.4245 25.2597 13C25.2582 9.74922 23.9662 6.63203 21.6676 4.33339C19.3689 2.03475 16.2517 0.742722 13.001 0.741211V0.741211Z" stroke="black" stroke-linecap="round" stroke-linejoin="round"/>
</g>
<defs>
<clipPath id="clip0_401_77">
<rect width="26" height="26" fill="white"/>
</clipPath>
</defs>
</svg>
